<svg width="100" height="100" viewBox="0 0 100 100" fill="none" xmlns="http://www.w3.org/2000/svg">
<rect width="100" height="100" fill="#323546"/>
<path d="M65.5205 54.0976C64.7771 54.5606 63.9016 54.6179 63.2362 54.2481C62.3908 53.7779 61.9261 52.6767 61.9261 51.1453V46.5632C61.9261 44.3505 61.0381 42.776 59.5533 42.3509C57.0371 41.6287 55.1447 44.6619 54.4336 45.801L49.9959 52.8898V44.2255C49.946 42.232 49.2888 41.0397 48.0411 40.6801C47.2155 40.4424 45.9803 40.5377 44.7804 42.3468L34.8382 58.0753C33.5072 55.5858 32.8134 52.8137 32.8169 50C32.8169 40.5254 40.5237 32.8179 49.9959 32.8179C59.4681 32.8179 67.1737 40.5254 67.1737 50C67.1737 50.0164 67.1779 50.0307 67.1789 50.0461C67.1789 50.0625 67.1758 50.0768 67.1768 50.0932C67.2663 51.9279 66.6632 53.3866 65.5205 54.0976ZM70.9907 50.001V49.9529L70.9896 49.9058C70.9366 38.367 61.5403 29 49.9948 29C38.4192 29 29 38.4203 29 50C29 61.5787 38.4192 71 49.9959 71C55.308 71 60.3779 69.0106 64.2697 65.3997C65.0433 64.6826 65.089 63.4748 64.3716 62.7024C64.0305 62.3318 63.5523 62.1121 63.0449 62.0929C62.5374 62.0736 62.0435 62.2564 61.6744 62.6C58.5199 65.543 54.3403 67.1829 49.9959 67.1821C44.9239 67.1821 40.3604 64.9704 37.2131 61.4629L46.1789 47.2792V53.8179C46.1789 56.9587 47.4152 57.9739 48.4518 58.2709C49.4895 58.568 51.0751 58.3652 52.7398 55.7018L57.6714 47.8252C57.8294 47.5712 57.975 47.352 58.1081 47.1624V51.1453C58.1081 54.0812 59.3017 56.4291 61.3823 57.5856C63.258 58.6284 65.6162 58.5342 67.5376 57.3398C69.8667 55.8902 71.1217 53.2197 70.9907 50.001Z" fill="#53596A"/>
</svg>
