<?xml version="1.0" encoding="UTF-8"?>
<svg xmlns="http://www.w3.org/2000/svg" viewBox="0 0 216.51 216.51">
  <defs>
    <style>
      .cls-1 {
        fill: #fff;
      }

      .cls-2 {
        fill: #1450f0;
      }
    </style>
  </defs>
  <rect class="cls-2" width="216.51" height="216.51"/>
  <g>
    <path class="cls-1" d="M108.26,93.26c2.21,0,4,1.79,4,4h16c0-11.05-8.95-20-20-20s-20,8.95-20,20,8.95,20,20,20c2.21,0,4,1.79,4,4,0,.73-.21,1.41-.56,2h16.46c.07-.66,.1-1.32,.1-2,0-11.05-8.95-20-20-20-2.21,0-4-1.79-4-4s1.79-4,4-4Z"/>
    <path class="cls-1" d="M104.26,121.26h-16c0,.68,.04,1.34,.1,2h16.46c-.34-.59-.56-1.27-.56-2Z"/>
    <path class="cls-1" d="M89.17,127.26h38.16c.21-.65,.38-1.32,.52-2h-39.2c.14,.68,.31,1.35,.52,2Z"/>
    <path class="cls-1" d="M90.95,131.26h34.6c.37-.65,.72-1.31,1.02-2h-36.65c.3,.69,.65,1.35,1.02,2Z"/>
    <path class="cls-1" d="M93.99,135.26h28.54c.61-.63,1.17-1.3,1.7-2h-31.95c.53,.7,1.09,1.37,1.7,2Z"/>
    <path class="cls-1" d="M99.58,139.26h17.35c1.16-.56,2.26-1.23,3.29-2h-23.93c1.03,.77,2.12,1.44,3.29,2Z"/>
  </g>
</svg>
